<?xml version="1.0" standalone="no"?>
<!DOCTYPE svg PUBLIC "-//W3C//DTD SVG 20010904//EN"
 "http://www.w3.org/TR/2001/REC-SVG-20010904/DTD/svg10.dtd">
<svg version="1.0" xmlns="http://www.w3.org/2000/svg"
 width="300.000000pt" height="251.000000pt" viewBox="0 0 300.000000 251.000000"
 preserveAspectRatio="xMidYMid meet">
<metadata>
Created by potrace 1.10, written by Peter Selinger 2001-2011
</metadata>
<g transform="translate(0.000000,251.000000) scale(0.100000,-0.100000)"
fill="white" stroke="none">
<path d="M783 1513 c-29 -2 -53 -6 -53 -9 0 -2 9 -13 20 -24 18 -18 20 -33 20
-190 0 -157 -2 -172 -20 -190 -11 -11 -20 -22 -20 -25 0 -3 36 -5 80 -5 48 0
80 4 80 10 0 6 -7 13 -15 16 -13 5 -15 39 -15 215 0 162 -3 209 -12 207 -7 -1
-37 -3 -65 -5z"/>
<path d="M1928 1513 c-62 -4 -70 -11 -38 -31 19 -11 20 -23 20 -211 0 -187 1
-199 19 -204 11 -2 23 -1 29 5 5 5 27 5 56 -2 77 -17 149 10 172 65 31 74 11
210 -34 234 -33 18 -97 13 -125 -9 -14 -11 -27 -20 -29 -20 -1 0 -1 40 0 90 2
49 0 89 -5 88 -4 -1 -34 -3 -65 -5z m169 -213 c18 -35 16 -135 -2 -170 -12
-22 -23 -30 -43 -30 -16 0 -33 5 -40 12 -17 17 -16 190 0 206 21 21 71 10 85
-18z"/>
<path d="M2308 1513 c-62 -4 -70 -11 -38 -31 19 -11 20 -23 20 -192 0 -169 -1
-181 -20 -192 -35 -22 -22 -28 60 -28 48 0 80 4 80 10 0 6 -7 13 -15 16 -13 5
-15 39 -15 215 0 115 -3 208 -7 207 -5 -1 -34 -3 -65 -5z"/>
<path d="M503 1364 c-37 -18 -57 -63 -43 -98 9 -25 39 -48 102 -80 61 -31 56
-86 -8 -86 -27 0 -38 6 -52 28 -9 15 -25 28 -34 28 -14 1 -18 -6 -18 -37 0
-41 -1 -41 80 -53 82 -13 160 33 160 92 0 41 -25 69 -91 103 -48 24 -60 34
-57 51 2 12 10 25 19 31 23 14 67 1 74 -23 4 -13 15 -20 31 -20 23 0 25 3 22
38 l-3 37 -75 2 c-53 2 -84 -2 -107 -13z"/>
<path d="M930 1366 c0 -8 6 -16 14 -19 11 -4 15 -33 18 -121 3 -103 5 -118 25
-137 29 -29 91 -29 132 0 31 22 31 22 31 2 0 -19 6 -21 60 -21 57 0 79 13 45
26 -12 5 -15 31 -15 145 l0 139 -65 0 c-69 0 -77 -5 -45 -33 17 -14 20 -29 20
-106 0 -85 -1 -91 -26 -110 -32 -25 -38 -26 -58 -5 -13 12 -16 40 -16 135 l0
119 -60 0 c-45 0 -60 -4 -60 -14z"/>
<path d="M1310 1370 c0 -5 9 -14 20 -20 18 -10 20 -21 20 -125 0 -104 -2 -116
-20 -127 -35 -22 -22 -28 60 -28 74 0 101 10 65 24 -12 4 -15 26 -15 109 0
112 6 127 51 127 35 0 39 -13 39 -131 0 -79 -3 -101 -15 -105 -35 -14 -10 -24
60 -24 75 0 88 7 60 30 -11 9 -15 35 -15 105 0 76 3 95 18 108 28 26 61 21 72
-9 16 -41 12 -177 -5 -200 -8 -10 -15 -22 -15 -26 0 -5 34 -8 75 -8 70 0 97
12 60 26 -12 5 -15 26 -15 98 0 105 -13 161 -40 176 -32 17 -85 11 -122 -13
l-34 -24 -17 24 c-26 33 -89 32 -135 -4 l-35 -26 7 26 6 27 -65 0 c-36 0 -65
-4 -65 -10z"/>
<path d="M2450 1370 c0 -5 9 -14 20 -20 18 -10 20 -21 20 -124 0 -89 -3 -116
-15 -126 -28 -23 -15 -30 60 -30 70 0 97 12 60 26 -22 9 -22 196 1 218 21 22
41 20 56 -4 8 -12 24 -20 40 -20 26 0 28 3 28 45 l0 45 -44 0 c-34 0 -52 -7
-77 -27 l-32 -28 7 28 6 27 -65 0 c-36 0 -65 -4 -65 -10z"/>
</g>
</svg>
